<?xml version="1.0" encoding="UTF-8"?>
<svg id="Layer_2" data-name="Layer 2" xmlns="http://www.w3.org/2000/svg" viewBox="0 0 178.58 249.45">
  <defs>
    <style>
      .cls-1 {
        fill: #fff;
      }

      .cls-2 {
        fill: none;
        stroke: #fff;
        stroke-miterlimit: 11.34;
        stroke-width: 2.74px;
      }
    </style>
  </defs>
  <g id="svg22446">
    <g id="g12868">
      <rect id="rect12862" class="cls-1" width="178.58" height="249.45" rx="8.5" ry="8.5"/>
      <path id="rect12864" d="M18.76,11.34h141.06c4.1,0,7.42,3.46,7.42,7.73v211.31c0,4.27-3.32,7.73-7.42,7.73H18.76c-4.1,0-7.42-3.46-7.42-7.73V19.07c0-4.27,3.32-7.73,7.42-7.73Z"/>
      <path id="path12866" class="cls-2" d="M21.74,20.74c26.78,83.33,49.93,136.11,67.55,165.47,17.61-29.36,40.77-82.14,67.55-165.47M123.07,24.46c-13.28,20.05-24.49,39.6-33.78,58.07-9.29-18.47-20.5-38.02-33.78-58.07M21.74,228.71c26.78-83.33,49.93-136.11,67.55-165.47,17.61,29.36,40.77,82.14,67.55,165.47M123.07,224.98c-13.28-20.05-24.49-39.6-33.78-58.07-9.29,18.47-20.5,38.02-33.78,58.07"/>
    </g>
  </g>
</svg>